<?xml version="1.0" encoding="UTF-8"?> <svg xmlns="http://www.w3.org/2000/svg" xmlns:xlink="http://www.w3.org/1999/xlink" id="Layer_1" data-name="Layer 1" viewBox="0 0 623.62 197.86"><defs><style>.cls-1{fill:url(#linear-gradient);}.cls-2{fill:url(#linear-gradient-2);}.cls-3{fill:url(#linear-gradient-3);}.cls-4{fill:url(#linear-gradient-4);}.cls-5{fill:url(#linear-gradient-5);}.cls-6{fill:url(#linear-gradient-6);}.cls-7{fill:url(#linear-gradient-7);}.cls-8{fill:url(#linear-gradient-8);}.cls-9{fill:url(#linear-gradient-9);}.cls-10{fill:url(#linear-gradient-10);}.cls-11{fill:url(#linear-gradient-11);}.cls-12{fill:url(#linear-gradient-12);}.cls-13{fill:#14d6bb;}</style><linearGradient id="linear-gradient" x1="161.47" y1="125.39" x2="237.22" y2="125.4" gradientUnits="userSpaceOnUse"><stop offset="0" stop-color="#262c42"></stop><stop offset="0.52" stop-color="#262c42"></stop><stop offset="1" stop-color="#262c41"></stop></linearGradient><linearGradient id="linear-gradient-2" x1="163.27" y1="80.62" x2="183.56" y2="141.91" gradientTransform="translate(14.77 242.25) rotate(-72.25)" gradientUnits="userSpaceOnUse"><stop offset="0" stop-color="#234755"></stop><stop offset="0.52" stop-color="#253a4b"></stop><stop offset="1" stop-color="#262c41"></stop></linearGradient><linearGradient id="linear-gradient-3" x1="174.31" y1="81.67" x2="132.86" y2="193.15" gradientTransform="translate(228.65 -54.76) rotate(69.62)" gradientUnits="userSpaceOnUse"><stop offset="0" stop-color="#262f43"></stop><stop offset="0.52" stop-color="#215b63"></stop><stop offset="1" stop-color="#20646a"></stop></linearGradient><linearGradient id="linear-gradient-4" x1="101.72" y1="5.12" x2="142.32" y2="192.91" gradientTransform="translate(244.55 0.54) rotate(102.05)" gradientUnits="userSpaceOnUse"><stop offset="0" stop-color="#1a9e93"></stop><stop offset="0.52" stop-color="#1c8783"></stop><stop offset="1" stop-color="#22535e"></stop></linearGradient><linearGradient id="linear-gradient-5" x1="75.82" y1="139.43" x2="109.22" y2="4.97" gradientTransform="translate(140.89 -34.09) rotate(75.96)" gradientUnits="userSpaceOnUse"><stop offset="0" stop-color="#17bba8"></stop><stop offset="0.25" stop-color="#17bca9"></stop><stop offset="1" stop-color="#1b978e"></stop></linearGradient><linearGradient id="linear-gradient-6" x1="3.66" y1="124.84" x2="96.5" y2="124.84" gradientUnits="userSpaceOnUse"><stop offset="0" stop-color="#14d9bd"></stop><stop offset="1" stop-color="#17baa7"></stop></linearGradient><linearGradient id="linear-gradient-7" x1="244.13" y1="92.31" x2="275.81" y2="92.31" xlink:href="#linear-gradient"></linearGradient><linearGradient id="linear-gradient-8" x1="280.68" y1="99.42" x2="311.97" y2="99.42" xlink:href="#linear-gradient"></linearGradient><linearGradient id="linear-gradient-9" x1="317.35" y1="92.06" x2="327.27" y2="92.06" xlink:href="#linear-gradient"></linearGradient><linearGradient id="linear-gradient-10" x1="334.63" y1="104.36" x2="366.31" y2="104.36" xlink:href="#linear-gradient"></linearGradient><linearGradient id="linear-gradient-11" x1="370.98" y1="92.06" x2="401.06" y2="92.06" xlink:href="#linear-gradient"></linearGradient><linearGradient id="linear-gradient-12" x1="406.88" y1="91.96" x2="418.85" y2="91.96" xlink:href="#linear-gradient"></linearGradient></defs><title>logo-text-delphi-care-solutions</title><rect class="cls-1" x="160.28" y="107.6" width="77.83" height="35.58" rx="17.79"></rect><rect class="cls-2" x="140.53" y="93.09" width="65.59" height="35.83" rx="17.92" transform="translate(226.22 -87.91) rotate(72.25)"></rect><rect class="cls-3" x="93.03" y="119.15" width="121.36" height="35.83" rx="17.92" transform="translate(-28.31 233.41) rotate(-69.62)"></rect><rect class="cls-4" x="24.76" y="81.28" width="194.6" height="35.83" rx="17.92" transform="translate(50.54 239.27) rotate(-102.05)"></rect><rect class="cls-5" x="21.56" y="55.27" width="141.44" height="35.83" rx="17.92" transform="translate(-1.1 144.95) rotate(-75.96)"></rect><rect class="cls-6" x="3.66" y="107.05" width="92.84" height="35.58" rx="17.79"></rect><path class="cls-7" d="M269.67,116a2.7,2.7,0,0,1-1.55-.42,2.17,2.17,0,0,1-.88-1.24l-.77-2.53a20.75,20.75,0,0,1-2.08,1.92,13.94,13.94,0,0,1-2.35,1.49,13.26,13.26,0,0,1-2.72,1,14.23,14.23,0,0,1-3.15.33,10.18,10.18,0,0,1-4.8-1.15,11,11,0,0,1-3.81-3.33,16.47,16.47,0,0,1-2.51-5.33,25.74,25.74,0,0,1-.92-7.18,22.27,22.27,0,0,1,1-6.9,17,17,0,0,1,2.89-5.5,13.37,13.37,0,0,1,4.5-3.63,12.7,12.7,0,0,1,5.79-1.31,11.18,11.18,0,0,1,4.34.75,12.54,12.54,0,0,1,3.21,2V68.11h9.92V116Zm-10.05-7.1a8.5,8.5,0,0,0,2-.21,7.41,7.41,0,0,0,1.62-.59,7.5,7.5,0,0,0,1.39-1,12.9,12.9,0,0,0,1.29-1.35V91.72A6.51,6.51,0,0,0,263.45,90a7.65,7.65,0,0,0-2.74-.5,5.75,5.75,0,0,0-2.53.55,5.14,5.14,0,0,0-2,1.74,9.4,9.4,0,0,0-1.33,3.12,19.4,19.4,0,0,0-.48,4.64,21.24,21.24,0,0,0,.39,4.42,8.88,8.88,0,0,0,1.07,2.89,4.16,4.16,0,0,0,1.65,1.59A4.71,4.71,0,0,0,259.62,108.91Z"></path><path class="cls-8" d="M297.06,82.31a17.11,17.11,0,0,1,6,1,13.12,13.12,0,0,1,4.71,3,13.75,13.75,0,0,1,3.07,4.79,17.69,17.69,0,0,1,1.1,6.41,15,15,0,0,1-.09,1.83,3,3,0,0,1-.36,1.12,1.3,1.3,0,0,1-.68.57,3.18,3.18,0,0,1-1.11.16H290.6q.48,4.17,2.52,6a7.57,7.57,0,0,0,5.28,1.87,9.35,9.35,0,0,0,3-.42,13.48,13.48,0,0,0,2.22-.93c.65-.34,1.25-.65,1.8-.92a3.66,3.66,0,0,1,1.71-.42,2.06,2.06,0,0,1,1.79.86l2.88,3.56a14.9,14.9,0,0,1-3.31,2.86,17.33,17.33,0,0,1-3.65,1.73,20.38,20.38,0,0,1-3.74.86,28.16,28.16,0,0,1-3.57.24,18.82,18.82,0,0,1-6.55-1.13,15.22,15.22,0,0,1-5.34-3.38,15.9,15.9,0,0,1-3.62-5.57,20.92,20.92,0,0,1-1.32-7.74,17.51,17.51,0,0,1,1.13-6.31,15.54,15.54,0,0,1,3.27-5.21,15.38,15.38,0,0,1,5.15-3.55A16.88,16.88,0,0,1,297.06,82.31Zm.19,6.85a6,6,0,0,0-4.45,1.62,8.47,8.47,0,0,0-2.11,4.65h12.39a8.92,8.92,0,0,0-.31-2.3,5.52,5.52,0,0,0-1-2A5,5,0,0,0,300,89.71,6.05,6.05,0,0,0,297.25,89.16Z"></path><path class="cls-9" d="M327.27,68.11V116h-9.92V68.11Z"></path><path class="cls-10" d="M334.63,126.54V82.83h6.14a2.77,2.77,0,0,1,1.55.41,2.23,2.23,0,0,1,.88,1.25l.74,2.43A17.75,17.75,0,0,1,346,85a14.53,14.53,0,0,1,2.37-1.49,13.07,13.07,0,0,1,2.72-1,13.24,13.24,0,0,1,3.18-.35,10.25,10.25,0,0,1,4.81,1.15,11,11,0,0,1,3.8,3.33A16.73,16.73,0,0,1,365.4,92a26.14,26.14,0,0,1,.91,7.16,22.15,22.15,0,0,1-1,6.91,17.58,17.58,0,0,1-2.91,5.5,13.44,13.44,0,0,1-4.48,3.65,12.63,12.63,0,0,1-5.78,1.31,11.3,11.3,0,0,1-4.35-.73,11.77,11.77,0,0,1-3.2-2v12.74Zm16.19-36.77a8.5,8.5,0,0,0-2,.21,7,7,0,0,0-1.63.59,6,6,0,0,0-1.39,1,12.07,12.07,0,0,0-1.28,1.36V107a6.18,6.18,0,0,0,2.43,1.74,7.71,7.71,0,0,0,2.75.5,5.75,5.75,0,0,0,2.53-.55,5.14,5.14,0,0,0,2-1.74,9.4,9.4,0,0,0,1.33-3.12,19.55,19.55,0,0,0,.48-4.67,21.24,21.24,0,0,0-.39-4.42,9,9,0,0,0-1.07-2.9A4.2,4.2,0,0,0,353,90.25,4.71,4.71,0,0,0,350.82,89.77Z"></path><path class="cls-11" d="M371,116V68.11h9.92V85.74a15.84,15.84,0,0,1,3.89-2.48,12.06,12.06,0,0,1,5-1,11.61,11.61,0,0,1,4.82,1,10,10,0,0,1,3.54,2.62,11.36,11.36,0,0,1,2.17,4,16.64,16.64,0,0,1,.74,5V116h-9.92V94.92A5.84,5.84,0,0,0,390,91.13a4,4,0,0,0-3.3-1.36,7,7,0,0,0-3.07.7,11.85,11.85,0,0,0-2.75,1.89V116Z"></path><path class="cls-12" d="M418.85,73.74a5.21,5.21,0,0,1-.48,2.22,6,6,0,0,1-1.31,1.83A6.31,6.31,0,0,1,415.12,79a6,6,0,0,1-2.35.47A5.56,5.56,0,0,1,410.5,79a6.1,6.1,0,0,1-1.87-1.24A5.56,5.56,0,0,1,407.35,76a5.36,5.36,0,0,1-.47-2.22,5.78,5.78,0,0,1,1.75-4.13,6,6,0,0,1,1.87-1.25,5.71,5.71,0,0,1,2.27-.45,6.17,6.17,0,0,1,4.29,1.7,6,6,0,0,1,1.31,1.86A5.41,5.41,0,0,1,418.85,73.74Zm-1.15,9.09V116h-9.92V82.83Z"></path><path class="cls-13" d="M269.32,144a2.51,2.51,0,0,1-.51.55,1.23,1.23,0,0,1-.74.19,1.8,1.8,0,0,1-1-.4,14.7,14.7,0,0,0-1.42-.88,12.42,12.42,0,0,0-2.1-.88,11.12,11.12,0,0,0-7.22.45,8.07,8.07,0,0,0-3.05,2.45,11.06,11.06,0,0,0-1.86,3.87,19.44,19.44,0,0,0-.62,5.09,18.54,18.54,0,0,0,.67,5.23,11.49,11.49,0,0,0,1.89,3.84,8.1,8.1,0,0,0,3,2.37,9.19,9.19,0,0,0,3.92.81,10,10,0,0,0,3.42-.49,10.16,10.16,0,0,0,2.24-1.11,14.73,14.73,0,0,0,1.47-1.1,1.8,1.8,0,0,1,1.16-.5,1.18,1.18,0,0,1,1.08.55l1.6,2.08a12.28,12.28,0,0,1-5.28,3.79,18.7,18.7,0,0,1-6.68,1.2,14.28,14.28,0,0,1-5.65-1.12,12.9,12.9,0,0,1-4.53-3.25,15.3,15.3,0,0,1-3-5.23,20.94,20.94,0,0,1-1.11-7.07,21.42,21.42,0,0,1,1-6.69,15.1,15.1,0,0,1,2.94-5.3,13.35,13.35,0,0,1,4.79-3.47,16.15,16.15,0,0,1,6.53-1.25,15.3,15.3,0,0,1,6,1.11,14.16,14.16,0,0,1,4.64,3.12Z"></path><path class="cls-13" d="M300.26,170.69h-2.53a3,3,0,0,1-1.34-.26,1.39,1.39,0,0,1-.67-1.08l-.64-3c-.86.77-1.69,1.45-2.5,2.06a14.26,14.26,0,0,1-2.56,1.54,13.32,13.32,0,0,1-2.86.94,16.73,16.73,0,0,1-3.38.32,11.61,11.61,0,0,1-3.54-.53,8,8,0,0,1-2.86-1.59,7.53,7.53,0,0,1-1.94-2.68,9.4,9.4,0,0,1-.72-3.84,7.18,7.18,0,0,1,1.06-3.7,9.25,9.25,0,0,1,3.41-3.17,22.23,22.23,0,0,1,6.16-2.26,41.84,41.84,0,0,1,9.31-.88V150a8.88,8.88,0,0,0-1.61-5.75,5.9,5.9,0,0,0-4.79-1.94,10.17,10.17,0,0,0-3.5.52,13.87,13.87,0,0,0-2.47,1.19c-.69.44-1.29.83-1.79,1.18a2.61,2.61,0,0,1-1.49.53,1.74,1.74,0,0,1-1-.3,2.47,2.47,0,0,1-.68-.76l-1-1.82a18.53,18.53,0,0,1,5.8-3.87A17.7,17.7,0,0,1,289,137.7a12.43,12.43,0,0,1,4.84.89,10,10,0,0,1,3.55,2.5,10.61,10.61,0,0,1,2.17,3.87,15.88,15.88,0,0,1,.74,5Zm-14.78-3.49a11.76,11.76,0,0,0,2.75-.3,10.5,10.5,0,0,0,2.35-.87,11.65,11.65,0,0,0,2.11-1.36,18.38,18.38,0,0,0,2-1.82v-6.69a38.54,38.54,0,0,0-6.69.5,18.91,18.91,0,0,0-4.48,1.3,6.26,6.26,0,0,0-2.51,1.9,4.13,4.13,0,0,0-.78,2.45,5.53,5.53,0,0,0,.41,2.22,4.28,4.28,0,0,0,1.12,1.53,4.37,4.37,0,0,0,1.67.87A7.64,7.64,0,0,0,285.48,167.2Z"></path><path class="cls-13" d="M308.26,170.69V138.27h3.26a1.76,1.76,0,0,1,1.28.36,2.07,2.07,0,0,1,.48,1.21l.39,5.06a14.89,14.89,0,0,1,4.11-5.3,9.08,9.08,0,0,1,5.74-1.9,9.21,9.21,0,0,1,2.44.3,8.55,8.55,0,0,1,2,.85l-.73,4.26a1,1,0,0,1-1,.8,4.82,4.82,0,0,1-1.37-.31,8.78,8.78,0,0,0-2.59-.3,7.3,7.3,0,0,0-5,1.73,12.89,12.89,0,0,0-3.34,5v20.64Z"></path><path class="cls-13" d="M346.24,137.76a14.46,14.46,0,0,1,5.38,1,12.22,12.22,0,0,1,4.26,2.81,13.1,13.1,0,0,1,2.8,4.55,17.57,17.57,0,0,1,1,6.16,3.78,3.78,0,0,1-.28,1.79,1.21,1.21,0,0,1-1.09.45H336.74a17.82,17.82,0,0,0,.83,5.34,10.9,10.9,0,0,0,2.11,3.79,8.59,8.59,0,0,0,3.2,2.28,11,11,0,0,0,4.16.75,12.22,12.22,0,0,0,3.7-.5,17.83,17.83,0,0,0,2.67-1.07,19,19,0,0,0,1.87-1.07,2.54,2.54,0,0,1,1.3-.5,1.25,1.25,0,0,1,1.09.55l1.6,2.08a11.06,11.06,0,0,1-2.53,2.22,15.37,15.37,0,0,1-3.15,1.55,19.46,19.46,0,0,1-3.47.91,20.55,20.55,0,0,1-3.56.31,16.43,16.43,0,0,1-6.19-1.14,13.43,13.43,0,0,1-4.89-3.33,15.26,15.26,0,0,1-3.22-5.42,22,22,0,0,1-1.15-7.42,18.7,18.7,0,0,1,1-6.34,14.9,14.9,0,0,1,3-5.1,13.88,13.88,0,0,1,4.77-3.4A15.68,15.68,0,0,1,346.24,137.76Zm.13,4.19a8.72,8.72,0,0,0-6.49,2.39,11.25,11.25,0,0,0-2.95,6.61h17.63a11.64,11.64,0,0,0-.54-3.64,8.16,8.16,0,0,0-1.6-2.84,7.13,7.13,0,0,0-2.58-1.86A8.63,8.63,0,0,0,346.37,142Z"></path><path class="cls-13" d="M396.58,143.62a1.26,1.26,0,0,1-1.19.7,2.23,2.23,0,0,1-1.08-.35c-.41-.23-.9-.5-1.49-.78a13.43,13.43,0,0,0-2.1-.8,9.83,9.83,0,0,0-2.88-.37,8.35,8.35,0,0,0-2.59.37,6.29,6.29,0,0,0-2,1,4.63,4.63,0,0,0-1.25,1.49,4.11,4.11,0,0,0-.43,1.84,3.06,3.06,0,0,0,.72,2.08,6.11,6.11,0,0,0,1.91,1.44,16.26,16.26,0,0,0,2.68,1.07c1,.31,2,.64,3.09,1s2.09.74,3.09,1.16a11.39,11.39,0,0,1,2.69,1.6,7.31,7.31,0,0,1,1.9,2.36,7.16,7.16,0,0,1,.72,3.34,10.47,10.47,0,0,1-.8,4.14,9,9,0,0,1-2.37,3.3,11.22,11.22,0,0,1-3.84,2.19,15.81,15.81,0,0,1-5.24.8,16.55,16.55,0,0,1-6.15-1.1,15.74,15.74,0,0,1-4.67-2.83l1.34-2.18a2.09,2.09,0,0,1,.61-.64,1.73,1.73,0,0,1,.93-.22,2.22,2.22,0,0,1,1.22.44c.42.3.94.63,1.55,1a12.12,12.12,0,0,0,2.21,1,10,10,0,0,0,3.24.45,8.92,8.92,0,0,0,2.92-.44,6.05,6.05,0,0,0,2.08-1.16,4.72,4.72,0,0,0,1.23-1.7,5.2,5.2,0,0,0,.4-2.05,3.38,3.38,0,0,0-.72-2.22,6.12,6.12,0,0,0-1.91-1.51,15.81,15.81,0,0,0-2.7-1.08l-3.1-1c-1.06-.34-2.09-.73-3.11-1.17a10.79,10.79,0,0,1-2.7-1.65,7.43,7.43,0,0,1-1.91-2.44,7.92,7.92,0,0,1-.72-3.54,8.65,8.65,0,0,1,.77-3.57,8.82,8.82,0,0,1,2.24-3,11.06,11.06,0,0,1,3.62-2.06,14.5,14.5,0,0,1,4.89-.77,15.55,15.55,0,0,1,5.75,1,13.55,13.55,0,0,1,4.4,2.77Z"></path><path class="cls-13" d="M418.27,137.76a16.65,16.65,0,0,1,6.42,1.19,13.49,13.49,0,0,1,4.86,3.36,14.83,14.83,0,0,1,3.08,5.26,22.81,22.81,0,0,1,0,13.81,14.88,14.88,0,0,1-3.08,5.25,13.33,13.33,0,0,1-4.86,3.34,18.17,18.17,0,0,1-12.83,0,13.49,13.49,0,0,1-4.88-3.34,14.94,14.94,0,0,1-3.11-5.25,22.61,22.61,0,0,1,0-13.81,14.89,14.89,0,0,1,3.11-5.26,13.66,13.66,0,0,1,4.88-3.36A16.64,16.64,0,0,1,418.27,137.76Zm0,28.93q4.8,0,7.17-3.22t2.37-9q0-5.79-2.37-9t-7.17-3.23a10,10,0,0,0-4.22.83,8,8,0,0,0-3,2.4,10.68,10.68,0,0,0-1.79,3.86,20.45,20.45,0,0,0-.6,5.17,20.18,20.18,0,0,0,.6,5.15,10.4,10.4,0,0,0,1.79,3.82,8,8,0,0,0,3,2.39A10,10,0,0,0,418.27,166.69Z"></path><path class="cls-13" d="M446.43,123.55v47.14h-5.69V123.55Z"></path><path class="cls-13" d="M460.77,138.27V159a8.59,8.59,0,0,0,1.7,5.69,6.29,6.29,0,0,0,5.12,2,9.8,9.8,0,0,0,4.7-1.19,14.49,14.49,0,0,0,4.06-3.29V138.27h5.7v32.42h-3.39a1.46,1.46,0,0,1-1.54-1.18l-.45-3.49a17.63,17.63,0,0,1-4.73,3.76,12.42,12.42,0,0,1-6,1.42,11.68,11.68,0,0,1-4.69-.88,9.13,9.13,0,0,1-3.4-2.48,10.5,10.5,0,0,1-2.07-3.87,17.21,17.21,0,0,1-.69-5V138.27Z"></path><path class="cls-13" d="M500.61,171.2a7.79,7.79,0,0,1-5.9-2.14,8.55,8.55,0,0,1-2.07-6.18V143h-3.9a1.31,1.31,0,0,1-.87-.3,1.2,1.2,0,0,1-.35-1v-2.27l5.31-.67,1.32-10a1.2,1.2,0,0,1,.41-.78,1.36,1.36,0,0,1,.9-.3h2.88v11.16h9.28V143h-9.28V162.5a4.15,4.15,0,0,0,1,3,3.46,3.46,0,0,0,2.56,1,4.51,4.51,0,0,0,1.55-.24,6.76,6.76,0,0,0,1.14-.53c.32-.19.59-.37.81-.53a1.11,1.11,0,0,1,.6-.24,1,1,0,0,1,.8.55l1.66,2.72a10.57,10.57,0,0,1-3.55,2.16A12.15,12.15,0,0,1,500.61,171.2Z"></path><path class="cls-13" d="M521.63,128.1a3.69,3.69,0,0,1-.33,1.55,4.62,4.62,0,0,1-.9,1.28,4.11,4.11,0,0,1-1.29.88,4,4,0,0,1-1.57.32,3.8,3.8,0,0,1-1.55-.32,4.18,4.18,0,0,1-1.28-.88,4,4,0,0,1-.88-1.28,3.68,3.68,0,0,1-.32-1.55,3.93,3.93,0,0,1,.32-1.59,4,4,0,0,1,.88-1.31,4.36,4.36,0,0,1,1.28-.88,3.8,3.8,0,0,1,1.55-.32,4,4,0,0,1,1.57.32,4.28,4.28,0,0,1,1.29.88,4.63,4.63,0,0,1,.9,1.31A3.94,3.94,0,0,1,521.63,128.1Zm-1.28,10.17v32.42h-5.69V138.27Z"></path><path class="cls-13" d="M542.88,137.76A16.65,16.65,0,0,1,549.3,139a13.49,13.49,0,0,1,4.86,3.36,14.82,14.82,0,0,1,3.07,5.26,22.81,22.81,0,0,1,0,13.81,14.86,14.86,0,0,1-3.07,5.25A13.33,13.33,0,0,1,549.3,170a18.2,18.2,0,0,1-12.84,0,13.53,13.53,0,0,1-4.87-3.34,14.94,14.94,0,0,1-3.11-5.25,22.42,22.42,0,0,1,0-13.81,14.89,14.89,0,0,1,3.11-5.26,13.71,13.71,0,0,1,4.87-3.36A16.65,16.65,0,0,1,542.88,137.76Zm0,28.93q4.8,0,7.17-3.22t2.37-9q0-5.79-2.37-9t-7.17-3.23a10,10,0,0,0-4.22.83,7.88,7.88,0,0,0-3,2.4,10.69,10.69,0,0,0-1.8,3.86,20.94,20.94,0,0,0-.59,5.17,20.66,20.66,0,0,0,.59,5.15,10.42,10.42,0,0,0,1.8,3.82,7.86,7.86,0,0,0,3,2.39A10,10,0,0,0,542.88,166.69Z"></path><path class="cls-13" d="M564.7,170.69V138.27h3.4a1.45,1.45,0,0,1,1.53,1.19l.45,3.52a18.19,18.19,0,0,1,4.72-3.78,12.28,12.28,0,0,1,6-1.44,11.82,11.82,0,0,1,4.69.88,9,9,0,0,1,3.39,2.5A11,11,0,0,1,591,145a16.87,16.87,0,0,1,.7,5v20.64H586V150.05a8.72,8.72,0,0,0-1.68-5.71,6.26,6.26,0,0,0-5.13-2,9.56,9.56,0,0,0-4.72,1.21,15.55,15.55,0,0,0-4.05,3.3v23.87Z"></path><path class="cls-13" d="M618.21,143.62a1.26,1.26,0,0,1-1.19.7,2.23,2.23,0,0,1-1.08-.35c-.41-.23-.91-.5-1.49-.78a13.43,13.43,0,0,0-2.1-.8,9.83,9.83,0,0,0-2.88-.37,8.35,8.35,0,0,0-2.59.37,6.29,6.29,0,0,0-2,1,4.48,4.48,0,0,0-1.24,1.49,4,4,0,0,0-.44,1.84,3.06,3.06,0,0,0,.72,2.08,6.11,6.11,0,0,0,1.91,1.44,16,16,0,0,0,2.69,1.07c1,.31,2,.64,3.08,1s2.09.74,3.09,1.16a11.39,11.39,0,0,1,2.69,1.6,7.31,7.31,0,0,1,1.9,2.36,7.16,7.16,0,0,1,.72,3.34,10.47,10.47,0,0,1-.8,4.14,9,9,0,0,1-2.37,3.3A11.27,11.27,0,0,1,613,170.4a15.91,15.91,0,0,1-5.25.8,16.55,16.55,0,0,1-6.15-1.1,15.74,15.74,0,0,1-4.67-2.83l1.34-2.18a2,2,0,0,1,.61-.64,1.73,1.73,0,0,1,.93-.22,2.22,2.22,0,0,1,1.22.44c.42.3.94.63,1.55,1a12.12,12.12,0,0,0,2.21,1,10,10,0,0,0,3.24.45,8.92,8.92,0,0,0,2.92-.44,6.05,6.05,0,0,0,2.08-1.16,4.72,4.72,0,0,0,1.23-1.7,5.39,5.39,0,0,0,.4-2.05,3.38,3.38,0,0,0-.72-2.22,6.12,6.12,0,0,0-1.91-1.51,15.49,15.49,0,0,0-2.7-1.08l-3.1-1c-1.06-.34-2.09-.73-3.11-1.17a10.79,10.79,0,0,1-2.7-1.65,7.41,7.41,0,0,1-1.9-2.44,7.79,7.79,0,0,1-.73-3.54,8.65,8.65,0,0,1,.77-3.57,9,9,0,0,1,2.24-3,11.06,11.06,0,0,1,3.62-2.06,14.52,14.52,0,0,1,4.9-.77,15.53,15.53,0,0,1,5.74,1,13.55,13.55,0,0,1,4.4,2.77Z"></path></svg> 